<svg width="110" height="30" viewBox="0 0 110 30" fill="none" xmlns="http://www.w3.org/2000/svg">
	<path fill-rule="evenodd" clip-rule="evenodd"
		d="M0 4.23795H6.2125L10.2599 15.3632L14.5 4.23795H20.5199L10.2262 30H4.27271L7.31731 22.0176L0 4.23795ZM69.7917 3.8441C75.2271 3.8441 79.1902 8.04904 79.1902 13.8052C79.1902 19.5613 75.2271 23.7662 69.7917 23.7662C67.7861 23.7662 66.0967 23.2369 64.8077 22.2163L64.7242 22.149L64.653 22.0897L64.6531 29.9938H58.8524L58.8526 4.23795H63.9816L63.9816 6.16397L64.0105 6.13082C65.2744 4.69333 67.1864 3.8978 69.5477 3.84673L69.6724 3.84473L69.7917 3.8441ZM68.9226 9.03652C66.3095 9.03652 64.5347 10.965 64.5347 13.8052C64.5347 16.6454 66.3095 18.5738 68.9226 18.5738C71.57 18.5738 73.3501 16.6511 73.3501 13.8052C73.3501 10.9592 71.57 9.03652 68.9226 9.03652ZM31.0846 3.8441C37.0699 3.8441 41.3126 7.9669 41.3126 13.8052C41.3126 19.6178 37.0558 23.7662 31.0846 23.7662C25.0799 23.7662 20.817 19.6236 20.817 13.8052C20.817 7.96109 25.0658 3.8441 31.0846 3.8441ZM31.0846 9.03652C28.4623 9.03652 26.6571 10.9747 26.6571 13.8052C26.6571 16.6356 28.4623 18.5738 31.0846 18.5738C33.6727 18.5738 35.4726 16.6298 35.4726 13.8052C35.4726 10.9805 33.6727 9.03652 31.0846 9.03652ZM50.9754 0L50.9753 4.23795H55.7485V9.23345L50.9753 9.2333L50.9754 16.1288C50.9754 17.6713 51.7274 18.5198 53.0959 18.5713L53.1626 18.5732L53.2302 18.5738C54.1584 18.5738 54.8614 18.3307 55.4903 17.7281L55.549 17.6705L55.7054 17.5104H55.7485V23.0208L55.5706 23.1056C54.6162 23.5607 54.0274 23.7662 52.4007 23.7662C47.8013 23.7662 45.2757 21.2698 45.1778 16.6092L45.1756 16.4673L45.1748 16.3258L45.1747 9.2333L43.0757 9.23345V4.23795H45.3328L45.3329 0H50.9754ZM91.8656 3.8441C97.8509 3.8441 102.094 7.9669 102.094 13.8052C102.094 19.6178 97.8368 23.7662 91.8656 23.7662C85.8609 23.7662 81.598 19.6236 81.598 13.8052C81.598 7.96109 85.8468 3.8441 91.8656 3.8441ZM91.8656 9.03652C89.2433 9.03652 87.4381 10.9747 87.4381 13.8052C87.4381 16.6356 89.2433 18.5738 91.8656 18.5738C94.4537 18.5738 96.2535 16.6298 96.2535 13.8052C96.2535 10.9805 94.4537 9.03652 91.8656 9.03652ZM106.822 23.7662C108.577 23.7662 110 22.3475 110 20.5973C110 18.8472 108.577 17.4284 106.822 17.4284C105.066 17.4284 103.643 18.8472 103.643 20.5973C103.643 22.3475 105.066 23.7662 106.822 23.7662Z"
		fill="#0042E4" />
</svg>