<svg width="173" height="32" viewBox="0 0 173 32" fill="none" xmlns="http://www.w3.org/2000/svg">
<g clip-path="url(#clip0_1_2575)">
<path d="M136 13.8617C138.939 9.71204 144.671 9.01968 147.945 12.432C149.265 13.808 149.676 15.4556 149.39 17.4379H140.091C140.263 19.7641 141.004 21.6546 143.019 22.7523C145.081 23.8758 147.227 24.0568 149.278 22.6C149.586 23.8027 149.549 23.9605 148.753 24.7552C145.639 27.8662 140.693 28.0481 137.176 25.182C133.852 22.4732 133.347 17.6076 136 13.8617ZM42.7529 10.2933C47.7034 9.54231 52.3394 12.313 53.4541 16.7123C53.6094 17.3256 53.6401 17.9694 53.7285 18.599C53.6595 25.1479 45.8827 29.2787 39.7598 25.9935C36.3982 24.1896 34.5224 20.7284 35.1094 17.4125C35.756 13.7636 38.8442 10.8865 42.7529 10.2933ZM62.3633 10.4203C67.295 9.27787 72.472 12.0975 73.6484 16.5668C75.0123 21.7495 70.8205 26.9194 65.0918 27.1185C64.9388 27.1237 64.7851 27.1198 64.6318 27.1205C59.31 27.1327 55.1472 23.1917 55.2393 18.2299C55.3065 14.6216 58.2745 11.3676 62.3633 10.4203ZM0 0.0150146C1.93001 0.0150138 3.81371 -0.120709 5.66797 0.0511475C7.82833 0.251721 8.66852 1.31957 8.68164 3.44275C8.69798 6.07656 8.68451 8.71083 8.6875 11.3451C8.68773 11.6026 8.71313 11.8608 8.7373 12.3324C10.6558 10.755 12.6628 10.0841 14.9561 10.2601C16.7929 10.4013 18.2575 11.1615 19.2979 12.6644C21.5616 15.9348 20.9345 21.9564 18.0566 24.7211C16.7465 25.9794 15.1361 26.7539 13.3711 26.9301C11.3689 27.1297 9.30732 27.1982 7.31641 26.9613C4.05238 26.5726 2.1269 24.3176 2.06934 20.8412C1.97655 15.2361 2.05714 9.6285 2.06543 4.02185C2.06566 3.83402 2.08483 3.64597 2.08301 3.45837C2.06436 1.63831 1.7993 1.3114 0 0.93103V0.0150146ZM157.477 12.2006C158.831 11.6072 160.138 10.7456 161.562 10.4691C164.921 9.81775 167.836 12.3033 167.872 15.6351C167.899 18.1548 167.853 20.6753 167.886 23.1947C167.912 25.2343 168.292 25.6479 170.142 25.8783V27.0072C168.652 26.9699 167.162 26.9127 165.673 26.8998C162.804 26.8752 161.701 25.8861 161.617 23.0404C161.544 20.5602 161.593 18.0764 161.581 15.5941C161.573 13.8463 161.031 12.9715 159.941 12.9164C158.778 12.8573 158.009 13.8417 157.988 15.6068C157.95 18.9164 157.976 22.2267 157.976 25.5365V26.8138H151.528V15.2367C151.529 12.6863 151.529 12.6864 153.882 11.7269C155.008 11.2675 156.134 10.8084 157.379 10.3011C157.419 11.0698 157.453 11.747 157.477 12.2006ZM30.6133 10.7904C32.0363 9.78552 33.7805 9.92882 34.7891 11.0541C35.5945 11.9521 35.5811 13.2523 34.7588 14.1361C33.9391 15.0166 32.8312 15.0792 31.7637 14.39C31.2274 14.0438 30.6068 13.8227 30.0244 13.5453C29.7686 14.2681 29.3037 14.9878 29.292 15.7142C29.2379 19.1355 29.3099 22.559 29.332 25.9818C29.3338 26.2769 29.3024 26.5727 29.2812 26.975H22.7705C22.7705 26.5747 22.7691 26.1802 22.7705 25.7865C22.7829 21.9495 22.8013 18.1118 22.8018 14.2748C22.8017 13.7143 22.7535 13.1475 22.6572 12.5951C22.5361 11.9003 22.1504 11.407 21.3555 11.4154C20.5583 11.4242 20.4791 11.0084 20.6787 10.3646C22.6572 10.3646 24.6575 10.1964 26.6035 10.4408C27.4966 10.5532 28.2835 11.4777 29.2021 12.0892C29.5137 11.7977 30.0077 11.218 30.6133 10.7904ZM82.2236 11.6625C82.8364 11.4141 83.2395 11.2638 83.6309 11.0892C85.5896 10.2145 87.6026 9.71768 89.7617 10.2308C91.2808 10.592 92.4411 11.3616 92.792 12.9545C93.1677 14.6601 92.8476 16.1778 91.3535 17.2875C90.7161 17.7609 90.0304 18.1726 89.2305 18.7025C91.1589 21.3833 93.0877 24.0639 95.1748 26.9652C92.4611 26.9652 90.0161 26.9864 87.5732 26.9379C87.288 26.932 86.9257 26.5983 86.7432 26.3246C85.548 24.5327 84.3946 22.7142 83.2227 20.9076C83.0069 20.5754 82.7684 20.2569 82.2979 19.9847V26.9232H75.8271C75.8069 26.5329 75.7725 26.1735 75.7725 25.8138C75.769 18.4055 75.7821 10.9966 75.752 3.58826C75.7491 2.80443 75.9758 2.40562 76.7275 2.07458C78.5381 1.27771 80.2929 0.357445 82.2236 -0.588501V11.6625ZM102.903 26.8978H96.4727C96.4529 26.4839 96.4199 26.1184 96.4199 25.7533C96.4167 18.3103 96.4294 10.867 96.3994 3.42419C96.3964 2.67843 96.6201 2.31382 97.3164 1.98474C99.1324 1.12626 100.891 0.151807 102.673 -0.776001H102.903V26.8978ZM112.338 26.8207H105.94C105.94 23.5993 105.94 20.4498 105.939 17.3011C105.939 16.0252 105.909 14.7481 105.958 13.474C105.97 13.1673 106.17 12.6925 106.41 12.5961C108.315 11.8293 110.25 11.1355 112.338 10.3588V26.8207ZM121.738 12.5795C122.29 12.1304 122.675 11.7785 123.099 11.4769C125.064 10.0768 127.166 10.006 129.279 11.0502C131.288 12.0422 132.175 13.712 132.122 15.931C132.064 18.3367 132.084 20.7454 132.121 23.1517C132.141 24.4087 132.153 25.7229 133.966 25.8812C134.132 25.8966 134.255 26.3973 134.448 26.7709C132.244 26.7709 130.255 26.8822 128.287 26.7338C126.902 26.6291 126.031 25.5638 125.939 23.9388C125.79 21.277 125.821 18.6052 125.749 15.9388C125.731 15.2723 125.761 14.5384 125.486 13.9652C125.269 13.5099 124.636 13.0052 124.158 12.976C123.675 12.9466 122.927 13.3597 122.705 13.7845C122.358 14.4494 122.24 15.2862 122.228 16.0531C122.179 19.2115 122.207 22.3714 122.207 25.5306V26.8197H115.843C115.815 26.4901 115.764 26.1688 115.764 25.848C115.758 21.7863 115.782 17.7239 115.74 13.6625C115.733 12.8941 115.981 12.5408 116.708 12.2748C118.314 11.6876 119.881 10.9958 121.613 10.2845C121.658 11.1156 121.694 11.7662 121.738 12.5795ZM64.6641 11.3539C64.0691 11.3595 63.4412 11.9325 62.9072 12.3549C62.6761 12.5375 62.5835 12.9528 62.5312 13.2787C61.9685 16.7871 61.8835 20.311 62.4736 23.8168C62.7125 25.2351 63.6006 25.919 64.6709 25.8744C65.7358 25.8301 66.5482 25.0905 66.7422 23.6781C66.9561 22.1216 66.9758 20.5385 67.0801 18.9672C67.0454 18.9651 67.0105 18.9631 66.9756 18.9613C66.9756 18.0591 67.0618 17.1468 66.9541 16.2572C66.7973 14.9625 66.6231 13.6435 66.2031 12.4183C66.0334 11.9237 65.1936 11.3489 64.6641 11.3539ZM44.4404 11.2806C43.4268 11.2163 42.6461 11.925 42.332 13.2992C42.1161 14.2448 41.9623 15.2311 41.9805 16.1957C42.0286 18.7773 42.1108 21.3637 42.333 23.9349C42.4244 24.9921 43.1009 25.8349 44.3662 25.8685C45.4277 25.8965 46.2792 25.2142 46.4805 23.8802C46.7256 22.2548 46.7504 20.5971 46.8828 18.7806C46.7336 17.0678 46.646 15.1905 46.3789 13.3383C46.2309 12.3136 45.7209 11.3626 44.4404 11.2806ZM12.7393 13.7094C11.9089 12.7655 10.7832 12.9945 9.65332 13.3558C8.52181 13.7175 8.68064 14.531 8.68457 15.349C8.69125 16.7026 8.68629 18.0567 8.68652 19.4105C8.68652 20.99 8.72875 22.5711 8.67188 24.1488C8.63165 25.2636 9.24254 25.6281 10.2158 25.6439C11.6925 25.6678 12.6776 24.8835 13.2822 23.6449C14.4538 21.2455 14.5742 18.705 14.0068 16.1586C13.8124 15.2862 13.3351 14.3869 12.7393 13.7094ZM84.8887 12.4916C83.7204 12.4566 82.3535 13.0514 82.3242 13.723C82.2634 15.1305 82.3066 16.5425 82.3066 17.9496C84.9178 17.9263 86.7933 16.1145 86.542 13.9945C86.428 13.0331 85.8947 12.5219 84.8887 12.4916ZM142.744 11.5131C141.912 11.2341 141.103 11.7558 140.825 12.556C140.421 13.7214 140.22 14.9542 139.901 16.2865H144.929C144.783 15.0712 144.828 13.9069 144.453 12.891C144.233 12.2936 143.415 11.738 142.744 11.5131ZM109.168 1.44666C111.243 1.45433 112.591 2.80621 112.574 4.86169C112.557 6.88297 111.144 8.26048 109.101 8.24744C107.1 8.23456 105.65 6.77497 105.668 4.79431C105.687 2.78727 107.097 1.43906 109.168 1.44666Z" fill="#313438"/>
</g>
<defs>
<clipPath id="clip0_1_2575">
<rect width="172.316" height="31.104" fill="white"/>
</clipPath>
</defs>
</svg>
