<svg width="68" height="31" viewBox="0 0 68 31" fill="none" xmlns="http://www.w3.org/2000/svg">
<path fill-rule="evenodd" clip-rule="evenodd" d="M42.2207 6.09638C43.9042 6.09638 45.2689 4.73157 45.2689 3.04819C45.2689 1.36468 43.9042 0 42.2207 0C40.5371 0 39.1725 1.36468 39.1725 3.04819C39.1725 4.73157 40.5371 6.09638 42.2207 6.09638ZM30.0083 8.97634C33.4008 8.9517 33.6252 11.7846 33.5004 13.1089C33.3585 14.6126 32.9144 16.4202 29.7714 18.5909C26.6284 20.7616 24.4993 21.2606 21.6625 22.9272C18.9827 24.5016 18.9123 26.1388 18.9873 26.8561C19.0577 27.5332 19.7064 30.264 24.132 30.4691C28.1997 30.6577 30.7817 28.7447 33.2571 26.023V30.2525L38.5312 30.2486L38.5311 30.249H46.3362V30.071C44.8938 30.071 44.0761 28.988 44.0761 26.9988V8.00572H38.3326V8.18381C39.7751 8.18381 40.6128 8.98023 40.6128 10.7833V26.9987C40.6128 29.0879 40.2042 30.0658 38.9136 30.0658H38.7515C37.5227 30.0658 37.0427 29.0879 37.0427 26.9987V14.0056C37.0427 10.6394 36.5472 9.01305 35.2467 8.2296C33.7581 7.33291 31.1658 7.39816 27.3695 9.02083C19.7171 12.2916 18.7204 14.992 18.7204 15.7119H22.9669C22.9669 15.7119 22.7736 13.5905 24.6217 11.5294C25.9562 10.0411 27.6387 8.99346 30.0083 8.97634ZM33.2572 25.365C32.2571 26.5291 30.3325 27.8249 27.7069 28.1129C24.9118 28.4195 23.1485 27.1628 23.217 25.3905C23.2888 23.5324 25.2066 22.188 26.4226 21.4523C27.6387 20.7166 29.2101 19.8784 30.9126 18.5276C32.4207 17.3307 33.2572 15.8439 33.2572 15.8439V25.365ZM67.0107 15.8192C67.0107 14.4697 65.4619 7.65291 57.2716 7.65291C50.6576 7.65291 46.5382 12.8557 46.4698 19.2299C46.4042 25.311 50.2437 30.5009 57.6673 30.4819C65.5737 30.4618 67.5791 22.1578 67.5791 22.1578L67.3923 22.1313C67.2908 22.3752 66.6483 23.6911 65.6411 24.8803C63.9215 26.845 61.454 28.3666 58.0909 28.0728C55.6165 27.8565 53.0614 26.2412 51.6264 23.3111C50.6615 21.3408 50.1691 18.3653 50.5879 15.8191L67.0107 15.8192ZM62.9611 13.0044C63.1051 14.0874 62.2635 15.2591 60.5197 15.2591L50.6801 15.2695C51.2902 11.3312 54.1041 8.20755 57.5711 8.20755C61.0677 8.20755 62.6621 10.7574 62.961 13.0042L62.9611 13.0044ZM12.5588 18.1908C7.53007 15.8839 3.24626 14.3461 3.24626 11.7829C3.24626 9.73242 5.1482 8.07654 9.13186 8.20249C13.3765 8.33674 15.8599 11.6811 15.4271 15.762H15.6134L18.0999 12.0014C18.0999 12.0014 17.6291 11.4232 17.1525 10.9949C15.855 9.7786 13.1115 7.75655 9.13186 7.65745C3.39711 7.51451 0.56411 10.8308 0.266166 13.272C-0.031779 15.7131 1.92996 17.4951 4.66166 18.9354C7.39336 20.3757 13.4255 22.3644 14.7389 24.4857C15.9737 26.4797 14.7505 29.8959 9.13796 29.8959C4.06499 29.8959 0.781764 25.1001 0.19236 22.4302H0V28.1478C0 28.1478 4.30742 30.4819 8.87063 30.4819C13.9864 30.4819 17.6083 28.2579 18.1465 24.7819C18.4072 23.0976 17.5877 20.4977 12.5588 18.1908Z" fill="#313438"/>
</svg>
