<svg width="118" height="28" viewBox="0 0 118 28" fill="none" xmlns="http://www.w3.org/2000/svg">
<g clip-path="url(#clip0_1_2564)">
<path d="M48.4373 21.9592C44.504 20.0693 42.7718 16.3943 43.6596 11.981C44.4572 8.01626 47.4894 5.48224 51.6926 5.2678C58.1638 4.93767 62.2364 8.90395 61.6333 15.0668C56.9236 15.0668 52.2015 15.0668 47.3655 15.0668C47.6057 17.0362 48.4524 18.4542 50.196 19.1669C52.3065 20.0296 54.5909 20.2124 56.2349 18.5099C57.335 17.3707 58.3973 17.3169 59.6843 17.3371C60.2376 17.3457 60.7911 17.3385 61.3673 17.3385C60.2119 21.9078 54.0674 24.1443 48.4373 21.9592ZM47.8986 10.8896C47.7754 11.2535 47.6521 11.6174 47.5144 12.024C50.991 12.024 54.2817 12.024 57.5908 12.024C57.1812 9.9282 56.0784 8.80981 54.1089 8.40771C51.4364 7.86206 49.3096 8.64987 47.8986 10.8896Z" fill="#313438"/>
<path d="M24.5509 20.4436C24.5509 13.5617 24.5509 6.81549 24.5509 0.000244141C25.8321 0.000244141 27.0284 0.000244141 28.3358 0.000244141C28.3358 2.48985 28.3358 4.9616 28.3358 7.74381C30.4455 5.67597 32.7859 5.05694 35.4088 5.26194C38.6161 5.51262 40.6997 7.37008 40.8338 10.5979C40.9932 14.4344 40.8713 18.2827 40.8713 22.1988C39.6345 22.1988 38.4418 22.1988 37.135 22.1988C37.135 19.664 37.1499 17.1885 37.1279 14.7133C37.1188 13.6836 37.0788 12.6494 36.9694 11.6262C36.7319 9.40533 35.6791 8.42661 33.4722 8.48207C32.5519 8.50519 31.5988 8.68698 30.7303 8.99384C29.0425 9.59017 28.3636 10.6915 28.3633 12.4925C28.3629 15.6813 28.3632 18.8701 28.3632 22.1598C27.1204 22.1598 25.9279 22.1598 24.5508 22.1598C24.5508 21.6562 24.5508 21.1177 24.5509 20.4436Z" fill="#313438"/>
<path d="M103.664 9.19035C104.984 12.0208 106.265 14.7526 107.679 17.7693C109.141 14.6169 110.482 11.7265 111.822 8.83575C111.901 8.66629 111.972 8.49339 112.049 8.32336C113.515 5.10264 113.677 5.01849 117.492 5.57332C116.123 8.45599 114.776 11.3089 113.415 14.1544C111.965 17.183 110.469 20.1896 109.051 23.2328C107.123 27.3717 103.083 29.0221 98.7355 27.3473C98.7355 26.3535 98.7355 25.3402 98.7355 24.422C100.011 24.422 101.227 24.5343 102.416 24.3984C104.8 24.1256 105.78 22.5102 104.846 20.2969C103.867 17.978 102.721 15.7291 101.625 13.4607C100.367 10.8579 99.0841 8.26723 97.6873 5.41621C99.0979 5.41621 100.333 5.37512 101.561 5.45081C101.807 5.46598 102.093 5.89119 102.245 6.18682C102.734 7.14014 103.17 8.12124 103.664 9.19035Z" fill="#313438"/>
<path d="M67.4336 6.76115C70.4332 4.95052 73.5543 4.8041 76.7113 5.74584C80.8278 6.97381 82.8736 10.7293 82.2867 15.6657C81.8201 19.5895 78.7574 22.5408 74.6205 22.6914C72.7034 22.7611 70.6627 22.5742 68.8562 21.9705C62.5517 19.8635 62.4545 10.0464 67.4336 6.76115ZM69.7574 18.5377C72.3869 20.1725 75.7566 19.8257 77.3861 17.7526C79.0852 15.591 78.9046 11.6506 77.0251 9.87517C74.965 7.92915 71.03 8.00102 69.1077 10.0001C67.2613 11.9203 67.3112 16.7466 69.7574 18.5377Z" fill="#313438"/>
<path d="M5.40308 3.67087C3.53575 3.67087 1.80764 3.67087 0 3.67087C0 2.42693 0 1.27553 0 0.0279541C7.41319 0.0279541 14.8304 0.0279541 22.3197 0.0279541C22.3197 1.20342 22.3197 2.39072 22.3197 3.68586C19.2233 3.68586 16.1923 3.68586 13.0432 3.68586C13.0432 9.90217 13.0432 16.0127 13.0432 22.1904C11.725 22.1904 10.5267 22.1904 9.22383 22.1904C9.22383 16.0613 9.22383 9.98693 9.22383 3.67087C7.93058 3.67087 6.73644 3.67087 5.40308 3.67087Z" fill="#313438"/>
<path d="M85.031 13.1648C85.031 10.5435 85.031 8.06287 85.031 5.49861C86.2743 5.49861 87.4268 5.49861 88.7143 5.49861C88.7592 6.28616 88.8053 7.09358 88.8688 8.20685C90.8205 5.86375 93.1244 5.09042 95.9408 5.4618C95.9408 6.81941 95.9408 8.14314 95.9408 9.34263C94.7441 9.34263 93.5613 9.19897 92.4267 9.37182C89.8776 9.76019 88.8124 11.0877 88.7931 13.6848C88.7723 16.4925 88.7884 19.3004 88.7884 22.1844C87.5184 22.1844 86.3238 22.1844 85.031 22.1844C85.031 19.2037 85.031 16.2546 85.031 13.1648Z" fill="#313438"/>
</g>
<defs>
<clipPath id="clip0_1_2564">
<rect width="117.492" height="27.9936" fill="white"/>
</clipPath>
</defs>
</svg>
