<svg width="136" height="32" viewBox="0 0 136 32" fill="none" xmlns="http://www.w3.org/2000/svg">
<g clip-path="url(#clip0_1_2546)">
<g clip-path="url(#clip1_1_2546)">
<path d="M132.024 8.9298C130.392 8.9298 129.065 7.60262 129.065 5.97101C129.065 4.33939 130.392 3.01222 132.024 3.01222C133.655 3.01222 134.983 4.33939 134.983 5.97101C134.983 7.60262 133.655 8.9298 132.024 8.9298ZM132.024 2.39111C130.05 2.39111 128.444 3.99705 128.444 5.97101C128.444 7.94496 130.05 9.5509 132.024 9.5509C133.998 9.5509 135.604 7.94496 135.604 5.97101C135.604 3.99705 133.998 2.39111 132.024 2.39111Z" fill="#313438"/>
<path d="M132.088 6.05234H131.344V4.68603H132.088C132.647 4.68603 132.935 4.93606 132.935 5.36643C132.935 5.79742 132.647 6.05234 132.088 6.05234ZM133.577 5.36643C133.577 4.60779 133.019 4.14746 132.118 4.14746H130.708V7.57453H131.344V6.57624H132.118C132.162 6.57624 132.206 6.57624 132.25 6.57074L132.95 7.57453H133.636L132.847 6.44847C133.312 6.26752 133.577 5.88545 133.577 5.36643Z" fill="#313438"/>
<path d="M109.451 27.1856V4.49586H123.421V7.05852H112.141V14.48H122.157V17.0402H112.141V24.6254H123.874V27.1856H109.451Z" fill="#313438"/>
<path d="M63.8837 3.45898C65.8705 6.03142 67.8475 8.59836 69.8135 11.1592C71.7795 13.7188 73.7565 16.2839 75.7458 18.8545C77.7326 16.2839 79.7096 13.7188 81.6756 11.1592C83.6428 8.59836 85.6204 6.03142 87.6078 3.45898V27.1856H84.918V11.9515C84.9388 11.7791 84.9553 11.6061 84.9669 11.4331C84.978 11.2607 84.9945 11.0877 85.0159 10.9147C83.589 13.0323 82.0766 15.0906 80.4774 17.089C78.8782 19.088 77.301 21.1029 75.7458 23.1337C74.2982 21.2331 72.8506 19.3429 71.403 17.4631C69.9554 15.5821 68.5065 13.6913 67.0577 11.7901L66.4757 10.9147C66.4965 11.0877 66.5124 11.2607 66.5222 11.4331C66.5332 11.6061 66.5503 11.7791 66.5735 11.9515V27.1856H63.8837V3.45898Z" fill="#313438"/>
<path d="M38.627 4.49586H41.3168V27.1856H38.627V4.49586Z" fill="#313438"/>
<path d="M0.0234375 4.49586H5.30769C6.86289 4.49586 8.33129 4.76117 9.71409 5.29058C11.0981 5.82059 12.3085 6.58291 13.3453 7.57692C14.3821 8.5697 15.2025 9.763 15.8077 11.1568C16.4142 12.5506 16.7174 14.1229 16.7174 15.8738C16.7174 17.149 16.4955 18.456 16.0523 19.796C15.6084 21.136 14.8895 22.3513 13.8955 23.4419C12.9027 24.5325 11.6116 25.4293 10.0222 26.1317C8.43399 26.8347 6.49488 27.1856 4.20487 27.1856H0.0234375V4.49586ZM2.71325 7.05852V24.5936H4.98247C6.25708 24.5936 7.44548 24.3882 8.54769 23.9774C9.64929 23.5666 10.6054 22.9785 11.416 22.2119C12.226 21.4441 12.8636 20.5259 13.3282 19.4561C13.7928 18.3869 14.0251 17.182 14.0251 15.842C14.0251 14.502 13.7928 13.2915 13.3282 12.2107C12.8636 11.1299 12.226 10.2068 11.416 9.44022C10.6054 8.6724 9.64929 8.08431 8.54769 7.67473C7.44548 7.26392 6.25708 7.05852 4.98247 7.05852H2.71325Z" fill="#313438"/>
</g>
</g>
<defs>
<clipPath id="clip0_1_2546">
<rect width="135.613" height="31.104" fill="white"/>
</clipPath>
<clipPath id="clip1_1_2546">
<rect width="135.684" height="24.8832" fill="white" transform="translate(0 2.33276)"/>
</clipPath>
</defs>
</svg>
