<svg width="170" height="28" viewBox="0 0 170 28" fill="none" xmlns="http://www.w3.org/2000/svg">
<g clip-path="url(#clip0_1_2598)">
<path d="M6.53357 16.2311H3.80863L3.83171 23.2867C3.83171 23.4066 3.73938 23.5271 3.64705 23.5271H0.459323C0.366991 23.5271 0.274658 23.4071 0.274658 23.2867L0.343908 13.0186L0.274658 2.75113C0.274658 2.63121 0.366991 2.51072 0.459323 2.51072H6.55665C10.4594 2.51072 12.7001 4.79258 12.7001 9.2662C12.7001 13.679 10.3901 16.2311 6.53357 16.2311ZM6.69515 5.84314H3.80863L3.78498 12.8987H6.78748C8.14995 12.8987 9.30467 11.878 9.30467 9.35628C9.30467 6.95395 8.35826 5.84314 6.69515 5.84314Z" fill="#313438"/>
<path d="M20.6204 18.8434L19.0271 15.721H16.7177L16.7639 23.2867C16.7639 23.4066 16.6715 23.5271 16.5792 23.5271H13.4151C13.3228 23.5271 13.2305 23.4071 13.2305 23.2867L13.2766 13.0186L13.2299 2.75113C13.2299 2.63121 13.3222 2.51072 13.4146 2.51072H19.9736C24.0154 2.51072 26.3479 4.73233 26.3479 9.11588C26.3479 12.2085 25.0316 14.34 22.7452 15.2408L26.787 23.3171C26.8332 23.4071 26.787 23.5271 26.6947 23.5271H22.9766C22.8612 23.5271 22.7458 23.437 22.6996 23.3171L20.6204 18.8434ZM20.1121 5.84314H16.7402L16.7171 12.3881H20.2044C21.6823 12.3881 22.9524 11.4872 22.9524 9.20539C22.9524 6.92354 21.9137 5.84314 20.1121 5.84314Z" fill="#313438"/>
<path d="M27.4333 23.5271C27.3409 23.5271 27.2486 23.4072 27.2486 23.2867L27.3179 13.0186L27.2486 2.75113C27.2486 2.63121 27.3409 2.51072 27.4333 2.51072H30.5743C30.6666 2.51072 30.7589 2.63064 30.7589 2.75113L30.6897 13.0192L30.7589 23.2872C30.7589 23.4072 30.6666 23.5276 30.5743 23.5276L27.4333 23.5271Z" fill="#313438"/>
<path d="M35.1221 13.4994V23.2867C35.1221 23.4066 35.0297 23.5271 34.9374 23.5271H32.0272C31.9349 23.5271 31.8426 23.4072 31.8426 23.2867L31.8887 13.0186L31.8426 2.75113C31.8426 2.63121 31.9349 2.51072 32.0272 2.51072H35.9075C36.0229 2.51072 36.1383 2.6008 36.1845 2.72072L42.6742 17.5823L42.5357 13.5591V2.75113C42.5357 2.63121 42.628 2.51072 42.7204 2.51072H45.6305C45.7229 2.51072 45.8152 2.63064 45.8152 2.75113L45.769 13.0192L45.8152 23.2872C45.8152 23.4072 45.7229 23.5276 45.6305 23.5276H41.6118C41.4964 23.5276 41.381 23.4376 41.3348 23.3176L34.9836 8.5754L35.0067 9.14572L35.1221 13.4994Z" fill="#313438"/>
<path d="M54.5223 23.9745C49.5572 23.9745 46.4854 19.5009 46.4854 13.1063C46.4854 6.41104 49.6264 2.0579 54.4992 2.0579C57.9865 2.0579 60.8274 3.91919 61.7276 9.56386C61.7507 9.68378 61.6815 9.80426 61.5891 9.80426H58.5174C58.4251 9.80426 58.3096 9.71418 58.2866 9.56386C57.848 7.01177 56.5542 5.57048 54.4531 5.57048C51.6352 5.57048 50.1112 8.39281 50.1112 13.0764C50.1112 17.7601 51.6814 20.4619 54.43 20.4619C56.6933 20.4619 57.9172 18.8709 58.3564 15.9883C58.3564 15.838 58.4718 15.7479 58.5641 15.7479H61.7051C61.7975 15.7479 61.8667 15.8678 61.8436 15.9883C60.9653 21.7523 58.3327 23.9745 54.5223 23.9745Z" fill="#313438"/>
<path d="M62.6734 23.5217C62.581 23.5217 62.4887 23.4018 62.4887 23.2813L62.5579 13.0132L62.4887 2.74516C62.4887 2.62524 62.581 2.50476 62.6734 2.50476H73.5973C73.6896 2.50476 73.782 2.62468 73.782 2.74516V5.65758C73.782 5.7775 73.6896 5.89798 73.5973 5.89798H66.0221L65.9759 10.7319H72.9273C73.0197 10.7319 73.112 10.8518 73.112 10.9723V13.8847C73.112 14.0047 73.0197 14.1251 72.9273 14.1251H65.9759L66.0221 20.1296H73.782C73.8743 20.1296 73.9666 20.2495 73.9666 20.37V23.2824C73.9666 23.4023 73.8743 23.5228 73.782 23.5228H62.6734V23.5217Z" fill="#313438"/>
<path d="M81.5188 24.0045C77.2693 24.0045 74.3366 21.6629 74.1975 16.6787C74.1975 16.5588 74.2898 16.4383 74.3822 16.4383H77.6848C77.7771 16.4383 77.8694 16.5284 77.8925 16.6787C78.1002 19.0202 78.9318 20.5814 81.5875 20.5814C83.6892 20.5814 84.8439 19.7707 84.8439 17.7895C84.8439 13.0456 74.5207 16.7986 74.5207 8.45208C74.5207 4.51894 76.8763 2.0575 81.0104 2.0575C84.7977 2.0575 87.4078 3.97902 87.8926 8.48249C87.9156 8.60241 87.8233 8.72289 87.731 8.72289H84.4053C84.313 8.72289 84.2207 8.63281 84.1976 8.48249C84.036 6.56096 82.8582 5.51039 80.8719 5.51039C79.2094 5.51039 78.0079 6.26088 78.0079 8.00224C78.0079 12.4759 88.3773 8.84281 88.3773 17.1595C88.3779 21.6027 85.7453 24.0045 81.5188 24.0045Z" fill="#313438"/>
<path d="M95.9294 24.0045C91.6798 24.0045 88.7471 21.6629 88.6081 16.6787C88.6081 16.5588 88.7004 16.4383 88.7927 16.4383H92.0953C92.1877 16.4383 92.28 16.5284 92.3031 16.6787C92.5108 19.0202 93.3424 20.5814 95.9981 20.5814C98.0998 20.5814 99.2545 19.7707 99.2545 17.7895C99.2545 13.0456 88.9312 16.7986 88.9312 8.45208C88.9312 4.51894 91.2868 2.0575 95.421 2.0575C99.2083 2.0575 101.818 3.97902 102.303 8.48249C102.326 8.60241 102.234 8.72289 102.142 8.72289H98.8159C98.7235 8.72289 98.6312 8.63281 98.6081 8.48249C98.4466 6.56096 97.2687 5.51039 95.2825 5.51039C93.6199 5.51039 92.4185 6.26088 92.4185 8.00224C92.4185 12.4759 102.788 8.84281 102.788 17.1595C102.788 21.6027 100.156 24.0045 95.9294 24.0045Z" fill="#313438"/>
<path d="M114.082 16.2257H111.357L111.38 23.2813C111.38 23.4012 111.287 23.5217 111.195 23.5217H108.008C107.916 23.5217 107.823 23.4018 107.823 23.2813L107.892 13.0132L107.823 2.74516C107.823 2.62524 107.916 2.50476 108.008 2.50476H114.105C118.008 2.50476 120.249 4.78661 120.249 9.26024C120.248 13.6736 117.938 16.2257 114.082 16.2257ZM114.243 5.83774H111.356L111.333 12.8933H114.335C115.698 12.8933 116.853 11.8726 116.853 9.35088C116.853 6.94855 115.906 5.83774 114.243 5.83774Z" fill="#313438"/>
<path d="M128.63 23.9746C123.688 23.9746 120.478 19.501 120.478 13.076C120.478 6.3808 123.665 2.0575 128.63 2.0575C133.549 2.0575 136.806 6.29072 136.806 13.076C136.806 19.501 133.572 23.9746 128.63 23.9746ZM128.653 20.4615C131.564 20.4615 133.18 17.6696 133.18 13.076C133.18 8.48249 131.587 5.57007 128.63 5.57007C125.674 5.57007 124.104 8.39241 124.104 13.076C124.104 17.6397 125.743 20.4615 128.653 20.4615Z" fill="#313438"/>
<path d="M137.66 23.5271C137.568 23.5271 137.475 23.4072 137.475 23.2867L137.544 13.0186L137.475 2.75113C137.475 2.63121 137.568 2.51072 137.66 2.51072H140.824C140.916 2.51072 141.009 2.63064 141.009 2.75113L140.962 12.7489L141.009 20.1344H147.614C147.706 20.1344 147.798 20.2543 147.798 20.3748V23.2872C147.798 23.4072 147.706 23.5276 147.614 23.5276L137.66 23.5271Z" fill="#313438"/>
<path d="M148.658 23.5217C148.566 23.5217 148.473 23.4018 148.473 23.2813L148.543 13.0132L148.473 2.74516C148.473 2.62524 148.566 2.50476 148.658 2.50476H151.822C151.914 2.50476 152.007 2.62468 152.007 2.74516L151.961 12.743L152.007 20.1285H158.612C158.704 20.1285 158.797 20.2484 158.797 20.3689V23.2813C158.797 23.4012 158.704 23.5217 158.612 23.5217H148.658Z" fill="#313438"/>
<path d="M163.737 23.2867C163.737 23.4066 163.645 23.5271 163.552 23.5271H160.365C160.273 23.5271 160.181 23.4071 160.181 23.2867L160.227 16.7114L154.799 2.72072C154.753 2.63064 154.799 2.51072 154.892 2.51072H158.517C158.633 2.51072 158.725 2.6008 158.771 2.72072L162.074 12.4185L165.446 2.72072C165.492 2.6008 165.584 2.51072 165.7 2.51072H169.025C169.118 2.51072 169.164 2.63064 169.118 2.72072L163.69 16.7114L163.737 23.2867Z" fill="#313438"/>
</g>
<defs>
<clipPath id="clip0_1_2598">
<rect width="169.403" height="27.4337" fill="white"/>
</clipPath>
</defs>
</svg>
